<?xml version="1.0" encoding="UTF-8" standalone="no"?>
<!-- Created with Inkscape (http://www.inkscape.org/) -->

<svg
   width="158.71429mm"
   height="97.172386mm"
   viewBox="0 0 158.71429 97.172403"
   version="1.1"
   id="svg7252"
   inkscape:version="1.1.2 (0a00cf5339, 2022-02-04)"
   sodipodi:docname="room_to_make_a_big_mistake.svg"
   xmlns:inkscape="http://www.inkscape.org/namespaces/inkscape"
   xmlns:sodipodi="http://sodipodi.sourceforge.net/DTD/sodipodi-0.dtd"
   xmlns="http://www.w3.org/2000/svg"
   xmlns:svg="http://www.w3.org/2000/svg">
  <sodipodi:namedview
     id="namedview7254"
     pagecolor="#ffffff"
     bordercolor="#666666"
     borderopacity="1.0"
     inkscape:pageshadow="2"
     inkscape:pageopacity="0.0"
     inkscape:pagecheckerboard="0"
     inkscape:document-units="mm"
     showgrid="false"
     inkscape:zoom="0.18618827"
     inkscape:cx="75.192706"
     inkscape:cy="-145.0145"
     inkscape:window-width="1920"
     inkscape:window-height="1011"
     inkscape:window-x="0"
     inkscape:window-y="0"
     inkscape:window-maximized="1"
     inkscape:current-layer="layer1" />
  <defs
     id="defs7249" />
<rect width="100%" height="100%" fill="white"/>
  <g
     inkscape:label="Layer 1"
     inkscape:groupmode="layer"
     id="layer1"
     transform="translate(-40.539332,60.018626)">
    <g
       id="g36614-54-19"
       transform="translate(77.89101,-59.36624)">
      <rect
         style="fill:#ff8080;fill-opacity:0.999953;stroke:none;stroke-width:0.0560398;stroke-linecap:round;stroke-linejoin:round"
         id="rect29577-6-8-66-82"
         width="12.7"
         height="12.7"
         x="49.530003"
         y="49.530003" />
      <path
         id="rect29926-3-67"
         style="fill:#000000;fill-opacity:0.999953;stroke:none;stroke-width:0.0480896;stroke-linecap:round;stroke-linejoin:round"
         d="m 55.879933,52.072005 -5.340988,3.054066 h 1.308688 v 4.561923 h 3.042853 v -3.124433 h 1.979026 v 3.124433 h 3.042723 v -4.561922 h 1.30882 z" />
    </g>
    <g
       id="g36629-09-45"
       transform="translate(133.77101,-115.24624)">
      <rect
         style="fill:#c6e9af;fill-opacity:0.999953;stroke:none;stroke-width:0.0560398;stroke-linecap:round;stroke-linejoin:round"
         id="rect29577-6-8-6-91-83"
         width="12.7"
         height="12.7"
         x="49.530003"
         y="105.41" />
      <g
         id="g33225-34-1"
         transform="translate(-24.985525,2.5166509)">
        <path
           sodipodi:type="star"
           style="fill:#000000;fill-opacity:0.999953;stroke:none;stroke-width:0.755906;stroke-linecap:round;stroke-linejoin:round"
           id="path32980-5-22"
           inkscape:flatsided="true"
           sodipodi:sides="3"
           sodipodi:cx="432.08679"
           sodipodi:cy="65.102242"
           sodipodi:r1="108.81142"
           sodipodi:r2="54.405712"
           sodipodi:arg1="0.52359878"
           sodipodi:arg2="1.5707963"
           inkscape:rounded="0"
           inkscape:randomized="0"
           transform="matrix(0.02179747,0,0,0.04667373,70.956415,107.02202)"
           inkscape:transform-center-y="-7.1974224"
           d="m 526.32024,119.50795 -188.4669,0 94.23345,-163.217125 z" />
        <path
           sodipodi:type="star"
           style="fill:#000000;fill-opacity:0.999953;stroke:none;stroke-width:0.755906;stroke-linecap:round;stroke-linejoin:round"
           id="path32980-3-85-9"
           inkscape:flatsided="true"
           sodipodi:sides="3"
           sodipodi:cx="432.08679"
           sodipodi:cy="65.102242"
           sodipodi:r1="108.81142"
           sodipodi:r2="54.405712"
           sodipodi:arg1="0.52359878"
           sodipodi:arg2="1.5707963"
           inkscape:rounded="0"
           inkscape:randomized="0"
           transform="matrix(0.01369907,0,0,0.02933307,77.900813,108.18797)"
           inkscape:transform-center-y="-4.5233695"
           inkscape:transform-center-x="4.9552875e-06"
           d="m 526.32024,119.50795 -188.4669,0 94.23345,-163.217125 z" />
        <path
           sodipodi:type="star"
           style="fill:#000000;fill-opacity:0.999953;stroke:none;stroke-width:0.755906;stroke-linecap:round;stroke-linejoin:round"
           id="path32980-2-73-55"
           inkscape:flatsided="true"
           sodipodi:sides="3"
           sodipodi:cx="432.08679"
           sodipodi:cy="65.102242"
           sodipodi:r1="108.81142"
           sodipodi:r2="54.405712"
           sodipodi:arg1="0.52359878"
           sodipodi:arg2="1.5707963"
           inkscape:rounded="0"
           inkscape:randomized="0"
           transform="matrix(0.0091418,0,0,0.01957483,73.531551,108.17287)"
           inkscape:transform-center-y="-3.0185784"
           inkscape:transform-center-x="-1.0092874e-06"
           d="m 526.32024,119.50795 -188.4669,0 94.23345,-163.217125 z" />
        <rect
           style="fill:#000000;fill-opacity:0.999953;stroke:none;stroke-width:0.0352809;stroke-linecap:round;stroke-linejoin:round"
           id="rect33119-3-4"
           width="0.65517044"
           height="1.5596114"
           x="80.047226"
           y="111.94514" />
        <rect
           style="fill:#000000;fill-opacity:0.999953;stroke:none;stroke-width:0.0352809;stroke-linecap:round;stroke-linejoin:round"
           id="rect33121-89-6"
           width="0.42321467"
           height="1.0674511"
           x="83.608391"
           y="111.22627" />
        <rect
           style="fill:#000000;fill-opacity:0.999953;stroke:none;stroke-width:0.0352809;stroke-linecap:round;stroke-linejoin:round"
           id="rect33123-5-3"
           width="0.42656532"
           height="0.89759755"
           x="77.268318"
           y="110.16053" />
      </g>
    </g>
    <g
       id="g36629-09-1"
       transform="translate(105.83101,-87.30624)">
      <rect
         style="fill:#c6e9af;fill-opacity:0.999953;stroke:none;stroke-width:0.0560398;stroke-linecap:round;stroke-linejoin:round"
         id="rect29577-6-8-6-91-2"
         width="12.7"
         height="12.7"
         x="49.530003"
         y="105.41" />
      <g
         id="g33225-34-0"
         transform="translate(-24.985525,2.5166509)">
        <path
           sodipodi:type="star"
           style="fill:#000000;fill-opacity:0.999953;stroke:none;stroke-width:0.755906;stroke-linecap:round;stroke-linejoin:round"
           id="path32980-5-6"
           inkscape:flatsided="true"
           sodipodi:sides="3"
           sodipodi:cx="432.08679"
           sodipodi:cy="65.102242"
           sodipodi:r1="108.81142"
           sodipodi:r2="54.405712"
           sodipodi:arg1="0.52359878"
           sodipodi:arg2="1.5707963"
           inkscape:rounded="0"
           inkscape:randomized="0"
           transform="matrix(0.02179747,0,0,0.04667373,70.956415,107.02202)"
           inkscape:transform-center-y="-7.1974224"
           d="m 526.32024,119.50795 -188.4669,0 94.23345,-163.217125 z" />
        <path
           sodipodi:type="star"
           style="fill:#000000;fill-opacity:0.999953;stroke:none;stroke-width:0.755906;stroke-linecap:round;stroke-linejoin:round"
           id="path32980-3-85-51"
           inkscape:flatsided="true"
           sodipodi:sides="3"
           sodipodi:cx="432.08679"
           sodipodi:cy="65.102242"
           sodipodi:r1="108.81142"
           sodipodi:r2="54.405712"
           sodipodi:arg1="0.52359878"
           sodipodi:arg2="1.5707963"
           inkscape:rounded="0"
           inkscape:randomized="0"
           transform="matrix(0.01369907,0,0,0.02933307,77.900813,108.18797)"
           inkscape:transform-center-y="-4.5233695"
           inkscape:transform-center-x="4.9552875e-06"
           d="m 526.32024,119.50795 -188.4669,0 94.23345,-163.217125 z" />
        <path
           sodipodi:type="star"
           style="fill:#000000;fill-opacity:0.999953;stroke:none;stroke-width:0.755906;stroke-linecap:round;stroke-linejoin:round"
           id="path32980-2-73-94"
           inkscape:flatsided="true"
           sodipodi:sides="3"
           sodipodi:cx="432.08679"
           sodipodi:cy="65.102242"
           sodipodi:r1="108.81142"
           sodipodi:r2="54.405712"
           sodipodi:arg1="0.52359878"
           sodipodi:arg2="1.5707963"
           inkscape:rounded="0"
           inkscape:randomized="0"
           transform="matrix(0.0091418,0,0,0.01957483,73.531551,108.17287)"
           inkscape:transform-center-y="-3.0185784"
           inkscape:transform-center-x="-1.0092874e-06"
           d="m 526.32024,119.50795 -188.4669,0 94.23345,-163.217125 z" />
        <rect
           style="fill:#000000;fill-opacity:0.999953;stroke:none;stroke-width:0.0352809;stroke-linecap:round;stroke-linejoin:round"
           id="rect33119-3-46"
           width="0.65517044"
           height="1.5596114"
           x="80.047226"
           y="111.94514" />
        <rect
           style="fill:#000000;fill-opacity:0.999953;stroke:none;stroke-width:0.0352809;stroke-linecap:round;stroke-linejoin:round"
           id="rect33121-89-8"
           width="0.42321467"
           height="1.0674511"
           x="83.608391"
           y="111.22627" />
        <rect
           style="fill:#000000;fill-opacity:0.999953;stroke:none;stroke-width:0.0352809;stroke-linecap:round;stroke-linejoin:round"
           id="rect33123-5-1"
           width="0.42656532"
           height="0.89759755"
           x="77.268318"
           y="110.16053" />
      </g>
    </g>
    <g
       id="g2309-61-4"
       transform="translate(49.95101,-59.36624)">
      <rect
         style="fill:#80e5ff;fill-opacity:0.999953;stroke:none;stroke-width:0.0840596;stroke-linecap:round;stroke-linejoin:round"
         id="rect29577-6-4-56-98"
         width="19.049999"
         height="19.049999"
         x="18.414999"
         y="74.294998" />
      <path
         d="m 31.067629,85.626668 q 0,0.651983 -0.563601,1.224754 -0.55664,0.57277 -1.516855,0.810409 v 0.75557 H 28.221805 V 87.77151 q -0.09048,0.0061 -0.18091,0.01219 -0.08348,0 -0.180911,0 h -0.194819 v 0.633699 H 26.892822 V 87.674017 Q 25.995245,87.454659 25.41076,86.857515 24.826289,86.254278 24.826289,85.340282 h 1.315074 q 0,0.383879 0.194819,0.731196 0.194819,0.347319 0.55664,0.566678 V 83.902262 Q 25.988284,83.652438 25.396851,83.19544 24.81238,82.738441 24.81238,81.903659 q 0,-0.779943 0.57751,-1.2735 0.584471,-0.493558 1.502932,-0.670264 v -0.73729 h 0.772343 v 0.651984 q 0.139157,0 0.278313,0 0.146118,0 0.278327,0.01218 V 79.2226 h 0.765368 v 0.761662 q 0.814097,0.188893 1.363776,0.670264 0.549679,0.475277 0.647095,1.23694 H 29.829102 Q 29.696879,81.23339 28.987173,80.898258 v 2.577467 q 1.008917,0.298572 1.544686,0.840876 0.53577,0.542305 0.53577,1.310061 z m -2.845824,1.261313 v -2.662774 l -0.55664,-0.146239 v 2.809013 q 0.09735,0.01828 0.278313,0.01219 0.180911,-0.0061 0.278327,-0.01219 z m 0,-3.607236 q 0,-0.548397 -0.0067,-1.066327 0,-0.517932 -0.01387,-0.920089 -0.0067,-0.408252 -0.02787,-0.609331 -0.0067,0 -0.0067,0 0,0 -0.0067,0 -0.125221,-0.01218 -0.250495,-0.01828 -0.118354,-0.0061 -0.243521,-0.0061 v 2.455601 q 0.125221,0.04265 0.264404,0.08531 0.139157,0.03656 0.292236,0.07921 z m -1.328983,-0.438718 v -2.022976 q -0.37573,0.158425 -0.549679,0.438717 -0.173949,0.274199 -0.173949,0.609331 0,0.310759 0.146118,0.542305 0.153066,0.225452 0.57751,0.432623 z m 2.76233,2.705427 q 0,-0.286385 -0.153079,-0.536211 -0.146118,-0.249824 -0.5149,-0.456997 v 2.096097 q 0.35486,-0.194986 0.507939,-0.493558 0.16004,-0.298572 0.16004,-0.609331 z"
         id="path34521-0-1-1"
         style="font-weight:bold;font-size:10.5833px;line-height:1.25;font-family:'Abyssinica SIL';-inkscape-font-specification:'Abyssinica SIL Bold';stroke-width:0.33338" />
      <circle
         style="fill:#000000;fill-opacity:0.999953;stroke-width:2;stroke-linecap:round;stroke-linejoin:round"
         id="path915-20-0-5-6-72-5"
         cx="31.267052"
         cy="90.573654"
         r="1.8341112" />
      <circle
         style="fill:#000000;fill-opacity:0.999953;stroke-width:2;stroke-linecap:round;stroke-linejoin:round"
         id="path915-3-6-7-6-4-5-2-64"
         cx="24.612947"
         cy="90.573654"
         r="1.8341112" />
    </g>
    <g
       id="g2273-9-08"
       transform="translate(161.71101,-115.24624)">
      <rect
         style="fill:#80e5ff;fill-opacity:0.999953;stroke:none;stroke-width:0.112079;stroke-linecap:round;stroke-linejoin:round"
         id="rect29577-8-2-12"
         width="25.4"
         height="25.4"
         x="-12.7"
         y="71.120003" />
      <path
         d="m 3.1276194,85.626668 q 0,0.651983 -0.5636013,1.224754 -0.55664,0.57277 -1.5168546,0.810409 v 0.75557 H 0.28179518 V 87.77151 q -0.0904821,0.0061 -0.18091038,0.01219 -0.08348052,0 -0.18091037,0 h -0.19481932 v 0.633699 H -1.0471879 V 87.674017 Q -1.9447651,87.454659 -2.52925,86.857515 -3.1137214,86.254278 -3.1137214,85.340282 h 1.3150742 q 0,0.383879 0.1948193,0.731196 0.1948193,0.347319 0.55664,0.566678 v -2.735894 q -0.9045384,-0.249824 -1.495971,-0.706822 -0.5844714,-0.456999 -0.5844714,-1.291781 0,-0.779943 0.5775102,-1.2735 0.5844714,-0.493558 1.5029322,-0.670264 v -0.73729 h 0.77234301 v 0.651984 q 0.13915666,0 0.27831331,0 0.14611785,0 0.27832676,0.01218 V 79.2226 H 1.0471635 v 0.761662 q 0.8140967,0.188893 1.3637756,0.670264 0.5496788,0.475277 0.6470952,1.23694 H 1.8890915 Q 1.7568692,81.23339 1.0471635,80.898258 v 2.577467 q 1.008916,0.298572 1.544686,0.840876 0.5357699,0.542305 0.5357699,1.310061 z m -2.84582422,1.261313 v -2.662774 l -0.55664007,-0.146239 v 2.809013 q 0.0973491,0.01828 0.27831331,0.01219 0.18091038,-0.0061 0.27832676,-0.01219 z m 0,-3.607236 q 0,-0.548397 -0.006732,-1.066327 0,-0.517932 -0.0138685,-0.920089 -0.006732,-0.408252 -0.0278717,-0.609331 -0.006732,0 -0.006732,0 0,0 -0.006732,0 -0.12522079,-0.01218 -0.25049544,-0.01828 -0.11835384,-0.0061 -0.24352077,-0.0061 v 2.455601 q 0.12522079,0.04265 0.26440437,0.08531 0.13915665,0.03656 0.2922357,0.07921 z M -1.0471879,82.842027 v -2.022976 q -0.3757297,0.158425 -0.5496788,0.438717 -0.1739492,0.274199 -0.1739492,0.609331 0,0.310759 0.1461178,0.542305 0.1530656,0.225452 0.5775102,0.432623 z m 2.7623303,2.705427 q 0,-0.286385 -0.1530791,-0.536211 -0.1461178,-0.249824 -0.5148998,-0.456997 v 2.096097 q 0.3548596,-0.194986 0.5079386,-0.493558 0.1600403,-0.298572 0.1600403,-0.609331 z"
         id="path34521-2-81-98"
         style="font-weight:bold;font-size:10.5833px;line-height:1.25;font-family:'Abyssinica SIL';-inkscape-font-specification:'Abyssinica SIL Bold';stroke-width:0.33338" />
      <circle
         style="fill:#000000;fill-opacity:0.999953;stroke-width:2;stroke-linecap:round;stroke-linejoin:round"
         id="path915-8-0-24-86"
         cx="1.6124917e-08"
         cy="91.218422"
         r="1.8341112" />
      <circle
         style="fill:#000000;fill-opacity:0.999953;stroke-width:2;stroke-linecap:round;stroke-linejoin:round"
         id="path915-3-9-6-78-82"
         cx="6.6541052"
         cy="91.218422"
         r="1.8341112" />
      <circle
         style="fill:#000000;fill-opacity:0.999953;stroke-width:2;stroke-linecap:round;stroke-linejoin:round"
         id="path915-3-6-73-3-6-02"
         cx="-6.6541047"
         cy="91.218422"
         r="1.8341112" />
    </g>
    <g
       id="g2285-3-504"
       transform="translate(133.77101,-87.30624)">
      <rect
         style="fill:#c6e9af;fill-opacity:0.999953;stroke:none;stroke-width:0.112079;stroke-linecap:round;stroke-linejoin:round"
         id="rect29577-2-77-1"
         width="25.4"
         height="25.4"
         x="-12.7"
         y="99.059998" />
      <path
         sodipodi:type="star"
         style="fill:#000000;fill-opacity:0.999953;stroke:none;stroke-width:0.755906;stroke-linecap:round;stroke-linejoin:round"
         id="path32980-30-2-94"
         inkscape:flatsided="true"
         sodipodi:sides="3"
         sodipodi:cx="432.08679"
         sodipodi:cy="65.102242"
         sodipodi:r1="108.81142"
         sodipodi:r2="54.405712"
         sodipodi:arg1="0.52359878"
         sodipodi:arg2="1.5707963"
         inkscape:rounded="0"
         inkscape:randomized="0"
         transform="matrix(0.02179747,0,0,0.04667373,-9.909111,109.53867)"
         inkscape:transform-center-y="-7.1974224"
         d="m 526.32024,119.50795 -188.4669,0 94.23345,-163.217125 z" />
      <path
         sodipodi:type="star"
         style="fill:#000000;fill-opacity:0.999953;stroke:none;stroke-width:0.755906;stroke-linecap:round;stroke-linejoin:round"
         id="path32980-3-8-37-14"
         inkscape:flatsided="true"
         sodipodi:sides="3"
         sodipodi:cx="432.08679"
         sodipodi:cy="65.102242"
         sodipodi:r1="108.81142"
         sodipodi:r2="54.405712"
         sodipodi:arg1="0.52359878"
         sodipodi:arg2="1.5707963"
         inkscape:rounded="0"
         inkscape:randomized="0"
         transform="matrix(0.01369907,0,0,0.02933307,-2.964713,110.70462)"
         inkscape:transform-center-y="-4.5233695"
         inkscape:transform-center-x="4.9552875e-06"
         d="m 526.32024,119.50795 -188.4669,0 94.23345,-163.217125 z" />
      <path
         sodipodi:type="star"
         style="fill:#000000;fill-opacity:0.999953;stroke:none;stroke-width:0.755906;stroke-linecap:round;stroke-linejoin:round"
         id="path32980-2-6-25-36"
         inkscape:flatsided="true"
         sodipodi:sides="3"
         sodipodi:cx="432.08679"
         sodipodi:cy="65.102242"
         sodipodi:r1="108.81142"
         sodipodi:r2="54.405712"
         sodipodi:arg1="0.52359878"
         sodipodi:arg2="1.5707963"
         inkscape:rounded="0"
         inkscape:randomized="0"
         transform="matrix(0.0091418,0,0,0.01957483,-7.333975,110.68952)"
         inkscape:transform-center-y="-3.0185784"
         inkscape:transform-center-x="-1.0092874e-06"
         d="m 526.32024,119.50795 -188.4669,0 94.23345,-163.217125 z" />
      <rect
         style="fill:#000000;fill-opacity:0.999953;stroke:none;stroke-width:0.0352809;stroke-linecap:round;stroke-linejoin:round"
         id="rect33119-6-3-42"
         width="0.65517044"
         height="1.5596114"
         x="-0.81830007"
         y="114.46178" />
      <rect
         style="fill:#000000;fill-opacity:0.999953;stroke:none;stroke-width:0.0352809;stroke-linecap:round;stroke-linejoin:round"
         id="rect33121-9-7-2"
         width="0.42321467"
         height="1.0674511"
         x="2.7428648"
         y="113.74292" />
      <rect
         style="fill:#000000;fill-opacity:0.999953;stroke:none;stroke-width:0.0352809;stroke-linecap:round;stroke-linejoin:round"
         id="rect33123-7-6-7"
         width="0.42656532"
         height="0.89759755"
         x="-3.5972078"
         y="112.67718" />
      <circle
         style="fill:#000000;fill-opacity:0.999953;stroke-width:2;stroke-linecap:round;stroke-linejoin:round"
         id="path915-8-06-81-61"
         cx="1.6124917e-08"
         cy="119.15842"
         r="1.8341112" />
      <circle
         style="fill:#000000;fill-opacity:0.999953;stroke-width:2;stroke-linecap:round;stroke-linejoin:round"
         id="path915-3-9-1-3-85"
         cx="6.6541052"
         cy="119.15842"
         r="1.8341112" />
      <circle
         style="fill:#000000;fill-opacity:0.999953;stroke-width:2;stroke-linecap:round;stroke-linejoin:round"
         id="path915-3-6-73-5-6-11"
         cx="-6.6541047"
         cy="119.15842"
         r="1.8341112" />
    </g>
    <g
       id="g2266-4-9"
       transform="translate(77.89101,-59.36624)">
      <rect
         style="fill:#ff8080;fill-opacity:0.999953;stroke:none;stroke-width:0.112079;stroke-linecap:round;stroke-linejoin:round"
         id="rect29577-0-809"
         width="25.4"
         height="25.4"
         x="-12.7"
         y="43.18" />
      <path
         id="rect29926-4-3-67"
         style="fill:#000000;fill-opacity:0.999953;stroke:none;stroke-width:0.0480896;stroke-linecap:round;stroke-linejoin:round"
         d="m -6.7e-5,52.072005 -5.340988,3.054066 h 1.308688 v 4.561923 h 3.042853 v -3.124433 h 1.979026 v 3.124433 h 3.042723 v -4.561923 h 1.30882 z" />
      <circle
         style="fill:#000000;fill-opacity:0.999953;stroke-width:2;stroke-linecap:round;stroke-linejoin:round"
         id="path915-5-5-21"
         cx="1.6124917e-08"
         cy="63.278419"
         r="1.8341112" />
      <circle
         style="fill:#000000;fill-opacity:0.999953;stroke-width:2;stroke-linecap:round;stroke-linejoin:round"
         id="path915-3-3-85-448"
         cx="6.6541052"
         cy="63.278419"
         r="1.8341112" />
      <circle
         style="fill:#000000;fill-opacity:0.999953;stroke-width:2;stroke-linecap:round;stroke-linejoin:round"
         id="path915-3-6-5-0-49"
         cx="-6.6541047"
         cy="63.278419"
         r="1.8341112" />
    </g>
    <g
       id="g2320-99-306"
       transform="translate(161.71101,-87.30624)">
      <rect
         style="fill:#c6e9af;fill-opacity:0.999953;stroke:none;stroke-width:0.0840596;stroke-linecap:round;stroke-linejoin:round"
         id="rect29577-6-9-8-447"
         width="19.049999"
         height="19.049999"
         x="18.414999"
         y="102.235" />
      <path
         sodipodi:type="star"
         style="fill:#000000;fill-opacity:0.999953;stroke:none;stroke-width:0.755906;stroke-linecap:round;stroke-linejoin:round"
         id="path32980-9-0-5"
         inkscape:flatsided="true"
         sodipodi:sides="3"
         sodipodi:cx="432.08679"
         sodipodi:cy="65.102242"
         sodipodi:r1="108.81142"
         sodipodi:r2="54.405712"
         sodipodi:arg1="0.52359878"
         sodipodi:arg2="1.5707963"
         inkscape:rounded="0"
         inkscape:randomized="0"
         transform="matrix(0.02179747,0,0,0.04667373,18.030889,109.53867)"
         inkscape:transform-center-y="-7.1974224"
         d="m 526.32024,119.50795 -188.4669,0 94.23345,-163.217125 z" />
      <path
         sodipodi:type="star"
         style="fill:#000000;fill-opacity:0.999953;stroke:none;stroke-width:0.755906;stroke-linecap:round;stroke-linejoin:round"
         id="path32980-3-3-2-38"
         inkscape:flatsided="true"
         sodipodi:sides="3"
         sodipodi:cx="432.08679"
         sodipodi:cy="65.102242"
         sodipodi:r1="108.81142"
         sodipodi:r2="54.405712"
         sodipodi:arg1="0.52359878"
         sodipodi:arg2="1.5707963"
         inkscape:rounded="0"
         inkscape:randomized="0"
         transform="matrix(0.01369907,0,0,0.02933307,24.975287,110.70462)"
         inkscape:transform-center-y="-4.5233695"
         inkscape:transform-center-x="4.9552875e-06"
         d="m 526.32024,119.50795 -188.4669,0 94.23345,-163.217125 z" />
      <path
         sodipodi:type="star"
         style="fill:#000000;fill-opacity:0.999953;stroke:none;stroke-width:0.755906;stroke-linecap:round;stroke-linejoin:round"
         id="path32980-2-7-4-27"
         inkscape:flatsided="true"
         sodipodi:sides="3"
         sodipodi:cx="432.08679"
         sodipodi:cy="65.102242"
         sodipodi:r1="108.81142"
         sodipodi:r2="54.405712"
         sodipodi:arg1="0.52359878"
         sodipodi:arg2="1.5707963"
         inkscape:rounded="0"
         inkscape:randomized="0"
         transform="matrix(0.0091418,0,0,0.01957483,20.606025,110.68952)"
         inkscape:transform-center-y="-3.0185784"
         inkscape:transform-center-x="-1.0092874e-06"
         d="m 526.32024,119.50795 -188.4669,0 94.23345,-163.217125 z" />
      <rect
         style="fill:#000000;fill-opacity:0.999953;stroke:none;stroke-width:0.0352809;stroke-linecap:round;stroke-linejoin:round"
         id="rect33119-1-90-35"
         width="0.65517044"
         height="1.5596114"
         x="27.1217"
         y="114.46178" />
      <rect
         style="fill:#000000;fill-opacity:0.999953;stroke:none;stroke-width:0.0352809;stroke-linecap:round;stroke-linejoin:round"
         id="rect33121-2-1-37"
         width="0.42321467"
         height="1.0674511"
         x="30.682865"
         y="113.74292" />
      <rect
         style="fill:#000000;fill-opacity:0.999953;stroke:none;stroke-width:0.0352809;stroke-linecap:round;stroke-linejoin:round"
         id="rect33123-3-2-48"
         width="0.42656532"
         height="0.89759755"
         x="24.342793"
         y="112.67718" />
      <circle
         style="fill:#000000;fill-opacity:0.999953;stroke-width:2;stroke-linecap:round;stroke-linejoin:round"
         id="path915-20-0-5-6-15-9-00-00"
         cx="31.267052"
         cy="118.51365"
         r="1.8341112" />
      <circle
         style="fill:#000000;fill-opacity:0.999953;stroke-width:2;stroke-linecap:round;stroke-linejoin:round"
         id="path915-3-6-7-6-4-5-9-0-6-16"
         cx="24.612947"
         cy="118.51365"
         r="1.8341112" />
    </g>
    <g
       id="g2303-3-59"
       transform="translate(133.77101,-59.36624)">
      <rect
         style="fill:#ff8080;fill-opacity:0.999953;stroke:none;stroke-width:0.0840596;stroke-linecap:round;stroke-linejoin:round"
         id="rect29577-6-90-39"
         width="19.049999"
         height="19.049999"
         x="18.414999"
         y="46.355" />
      <path
         id="rect29926-0-8-97"
         style="fill:#000000;fill-opacity:0.999953;stroke:none;stroke-width:0.0480896;stroke-linecap:round;stroke-linejoin:round"
         d="m 27.939933,52.072005 -5.340988,3.054066 h 1.308688 v 4.561923 h 3.042853 v -3.124433 h 1.979026 v 3.124433 h 3.042723 v -4.561922 h 1.30882 z" />
      <circle
         style="fill:#000000;fill-opacity:0.999953;stroke-width:2;stroke-linecap:round;stroke-linejoin:round"
         id="path915-20-0-5-6-15-1-38-9"
         cx="31.267052"
         cy="62.633652"
         r="1.8341112" />
      <circle
         style="fill:#000000;fill-opacity:0.999953;stroke-width:2;stroke-linecap:round;stroke-linejoin:round"
         id="path915-3-6-7-6-4-5-9-7-7-73"
         cx="24.612947"
         cy="62.633652"
         r="1.8341112" />
    </g>
    <g
       id="g2303-3-8"
       transform="translate(49.95101,-87.30624)">
      <rect
         style="fill:#ff8080;fill-opacity:0.999953;stroke:none;stroke-width:0.0840596;stroke-linecap:round;stroke-linejoin:round"
         id="rect29577-6-90-44"
         width="19.049999"
         height="19.049999"
         x="18.414999"
         y="46.355" />
      <path
         id="rect29926-0-8-19"
         style="fill:#000000;fill-opacity:0.999953;stroke:none;stroke-width:0.0480896;stroke-linecap:round;stroke-linejoin:round"
         d="m 27.939933,52.072005 -5.340988,3.054066 h 1.308688 v 4.561923 h 3.042853 v -3.124433 h 1.979026 v 3.124433 h 3.042723 v -4.561922 h 1.30882 z" />
      <circle
         style="fill:#000000;fill-opacity:0.999953;stroke-width:2;stroke-linecap:round;stroke-linejoin:round"
         id="path915-20-0-5-6-15-1-38-6"
         cx="31.267052"
         cy="62.633652"
         r="1.8341112" />
      <circle
         style="fill:#000000;fill-opacity:0.999953;stroke-width:2;stroke-linecap:round;stroke-linejoin:round"
         id="path915-3-6-7-6-4-5-9-7-7-8"
         cx="24.612947"
         cy="62.633652"
         r="1.8341112" />
    </g>
    <g
       id="g2303-3-09"
       transform="translate(77.89101,-59.36624)">
      <rect
         style="fill:#ff8080;fill-opacity:0.999953;stroke:none;stroke-width:0.0840596;stroke-linecap:round;stroke-linejoin:round"
         id="rect29577-6-90-36"
         width="19.049999"
         height="19.049999"
         x="18.414999"
         y="46.355" />
      <path
         id="rect29926-0-8-3"
         style="fill:#000000;fill-opacity:0.999953;stroke:none;stroke-width:0.0480896;stroke-linecap:round;stroke-linejoin:round"
         d="m 27.939933,52.072005 -5.340988,3.054066 h 1.308688 v 4.561923 h 3.042853 v -3.124433 h 1.979026 v 3.124433 h 3.042723 v -4.561922 h 1.30882 z" />
      <circle
         style="fill:#000000;fill-opacity:0.999953;stroke-width:2;stroke-linecap:round;stroke-linejoin:round"
         id="path915-20-0-5-6-15-1-38-895"
         cx="31.267052"
         cy="62.633652"
         r="1.8341112" />
      <circle
         style="fill:#000000;fill-opacity:0.999953;stroke-width:2;stroke-linecap:round;stroke-linejoin:round"
         id="path915-3-6-7-6-4-5-9-7-7-017"
         cx="24.612947"
         cy="62.633652"
         r="1.8341112" />
    </g>
    <text
       xml:space="preserve"
       style="font-style:normal;font-weight:normal;font-size:14.7533px;line-height:1.25;font-family:sans-serif;fill:#000000;fill-opacity:1;stroke:none;stroke-width:0.368835"
       x="94.913704"
       y="-42.833176"
       id="text28275-9-6-5-6"><tspan
         sodipodi:role="line"
         id="tspan28273-7-0-0-86"
         style="stroke-width:0.368835"
         x="94.913704"
         y="-42.833176">+2</tspan></text>
    <text
       xml:space="preserve"
       style="font-style:normal;font-weight:normal;font-size:14.7533px;line-height:1.25;font-family:sans-serif;fill:#000000;fill-opacity:1;stroke:none;stroke-width:0.368835"
       x="125.13441"
       y="-49.263412"
       id="text28275-9-6-5-6-3"><tspan
         sodipodi:role="line"
         id="tspan28273-7-0-0-86-5"
         style="stroke-width:0.368835"
         x="125.13441"
         y="-49.263412">+1</tspan></text>
    <text
       xml:space="preserve"
       style="font-style:normal;font-weight:normal;font-size:14.7533px;line-height:1.25;font-family:sans-serif;fill:#000000;fill-opacity:1;stroke:none;stroke-width:0.368835"
       x="38.976116"
       y="1.8913723"
       id="text28275-9-6-5-82-6-0"><tspan
         sodipodi:role="line"
         id="tspan28273-7-0-0-82-7-2"
         style="stroke-width:0.368835"
         x="38.976116"
         y="1.8913723">+1</tspan></text>
    <text
       xml:space="preserve"
       style="font-style:normal;font-weight:normal;font-size:14.7533px;line-height:1.25;font-family:sans-serif;fill:#000000;fill-opacity:1;stroke:none;stroke-width:0.368835"
       x="57.70866"
       y="-47.067551"
       id="text28275-9-8-25-6-7"><tspan
         sodipodi:role="line"
         id="tspan28273-7-9-26-0-4"
         style="stroke-width:0.368835"
         x="57.70866"
         y="-47.067551">+3</tspan></text>
    <text
       xml:space="preserve"
       style="font-style:normal;font-weight:normal;font-size:14.7533px;line-height:1.25;font-family:sans-serif;fill:#000000;fill-opacity:1;stroke:none;stroke-width:0.368835"
       x="178.48518"
       y="-26.055832"
       id="text28275-9-8-25-6-0-2"><tspan
         sodipodi:role="line"
         id="tspan28273-7-9-26-0-0-4"
         style="stroke-width:0.368835"
         x="178.48518"
         y="-26.055832">+0</tspan></text>
    <path
       style="fill:none;stroke:#000000;stroke-width:1.27;stroke-linecap:butt;stroke-linejoin:miter;stroke-miterlimit:4;stroke-dasharray:none;stroke-opacity:1"
       d="m 107.35332,-37.78279 -1.1707,26.6903"
       id="path82242"
       sodipodi:nodetypes="cc" />
    <path
       style="fill:none;stroke:#000000;stroke-width:1.27;stroke-linecap:butt;stroke-linejoin:miter;stroke-miterlimit:4;stroke-dasharray:none;stroke-opacity:1"
       d="m 137.09008,-43.3628 -0.39534,34.0245"
       id="path82244"
       sodipodi:nodetypes="cc" />
    <path
       style="fill:none;stroke:#000000;stroke-width:1.27;stroke-linecap:butt;stroke-linejoin:miter;stroke-miterlimit:4;stroke-dasharray:none;stroke-opacity:1"
       d="M 185.23817,-21.25194 166.60712,-7.95623"
       id="path82246"
       sodipodi:nodetypes="cc" />
  </g>
</svg>
