<?xml version="1.0" encoding="UTF-8" standalone="no"?>
<!-- Created with Inkscape (http://www.inkscape.org/) -->

<svg
   width="177.90459mm"
   height="108.47466mm"
   viewBox="0 0 177.90459 108.47467"
   version="1.1"
   id="svg7252"
   inkscape:version="1.1.2 (0a00cf5339, 2022-02-04)"
   sodipodi:docname="shopping_district.svg"
   xmlns:inkscape="http://www.inkscape.org/namespaces/inkscape"
   xmlns:sodipodi="http://sodipodi.sourceforge.net/DTD/sodipodi-0.dtd"
   xmlns="http://www.w3.org/2000/svg"
   xmlns:svg="http://www.w3.org/2000/svg">
  <sodipodi:namedview
     id="namedview7254"
     pagecolor="#ffffff"
     bordercolor="#666666"
     borderopacity="1.0"
     inkscape:pageshadow="2"
     inkscape:pageopacity="0.0"
     inkscape:pagecheckerboard="0"
     inkscape:document-units="mm"
     showgrid="false"
     inkscape:zoom="0.18618827"
     inkscape:cx="306.14173"
     inkscape:cy="257.80356"
     inkscape:window-width="1920"
     inkscape:window-height="1011"
     inkscape:window-x="0"
     inkscape:window-y="0"
     inkscape:window-maximized="1"
     inkscape:current-layer="layer1" />
  <defs
     id="defs7249" />
  <g
     inkscape:label="Layer 1"
     inkscape:groupmode="layer"
     id="layer1"
     transform="translate(21.575224,166.01697)">
    <g
       id="g36619-3-2"
       transform="translate(-0.83605,-177.93829)">
      <rect
         style="fill:#80e5ff;fill-opacity:0.999953;stroke:none;stroke-width:0.0560398;stroke-linecap:round;stroke-linejoin:round"
         id="rect29577-6-8-4-1-7"
         width="12.7"
         height="12.7"
         x="49.530003"
         y="77.470001" />
      <g
         aria-label="$"
         id="text33991-48-7"
         style="font-weight:bold;font-size:10.5833px;line-height:1.25;font-family:'Abyssinica SIL';-inkscape-font-specification:'Abyssinica SIL Bold';stroke-width:0.264583"
         transform="matrix(1.3464601,0,0,1.17913,-83.862335,31.991314)">
        <path
           d="m 106.10783,45.487227 q 0,0.552936 -0.41858,1.038693 -0.41341,0.485756 -1.12655,0.687294 V 47.854 h -0.56843 v -0.547769 q -0.0672,0.0052 -0.13436,0.01034 -0.062,0 -0.13436,0 h -0.14469 V 47.854 h -0.57361 v -0.630451 q -0.66662,-0.186034 -1.10071,-0.692462 -0.43408,-0.511595 -0.43408,-1.286739 h 0.97669 q 0,0.325561 0.14469,0.620115 0.14469,0.294555 0.41341,0.48059 v -2.320265 q -0.67179,-0.211872 -1.11104,-0.599444 -0.43408,-0.387573 -0.43408,-1.095537 0,-0.661457 0.42891,-1.080034 0.43408,-0.418578 1.11621,-0.568439 v -0.625283 h 0.57361 v 0.552936 q 0.10335,0 0.2067,0 0.10852,0 0.20671,0.01033 v -0.563271 h 0.56843 v 0.645953 q 0.60462,0.160197 1.01286,0.568439 0.40824,0.403075 0.48059,1.049028 h -0.86816 q -0.0982,-0.558103 -0.62529,-0.842323 v 2.185906 q 0.74931,0.253214 1.14722,0.713133 0.39791,0.459919 0.39791,1.11104 z m -2.11356,1.069698 v -2.258253 l -0.41341,-0.124023 v 2.382276 q 0.0723,0.0155 0.2067,0.01034 0.13436,-0.0052 0.20671,-0.01034 z m 0,-3.059235 q 0,-0.465086 -0.005,-0.904334 0,-0.439249 -0.0103,-0.780312 -0.005,-0.346231 -0.0207,-0.516763 -0.005,0 -0.005,0 0,0 -0.005,0 -0.093,-0.01033 -0.18604,-0.0155 -0.0879,-0.0052 -0.18086,-0.0052 v 2.082553 q 0.093,0.03617 0.19637,0.07235 0.10335,0.03101 0.21704,0.06718 z m -0.98702,-0.372069 v -1.715652 q -0.27905,0.134358 -0.40824,0.372069 -0.12919,0.232543 -0.12919,0.516763 0,0.263549 0.10852,0.459919 0.11368,0.191202 0.42891,0.366901 z m 2.05155,2.294426 q 0,-0.242878 -0.11369,-0.454751 -0.10852,-0.211872 -0.38241,-0.387572 v 1.777664 q 0.26355,-0.165364 0.37724,-0.418578 0.11886,-0.253214 0.11886,-0.516763 z"
           id="path34521-96-9" />
      </g>
    </g>
    <g
       id="g36619-3-8"
       transform="translate(-28.77605,-205.87829)">
      <rect
         style="fill:#80e5ff;fill-opacity:0.999953;stroke:none;stroke-width:0.0560398;stroke-linecap:round;stroke-linejoin:round"
         id="rect29577-6-8-4-1-1"
         width="12.7"
         height="12.7"
         x="49.530003"
         y="77.470001" />
      <g
         aria-label="$"
         id="text33991-48-0"
         style="font-weight:bold;font-size:10.5833px;line-height:1.25;font-family:'Abyssinica SIL';-inkscape-font-specification:'Abyssinica SIL Bold';stroke-width:0.264583"
         transform="matrix(1.3464601,0,0,1.17913,-83.862335,31.991314)">
        <path
           d="m 106.10783,45.487227 q 0,0.552936 -0.41858,1.038693 -0.41341,0.485756 -1.12655,0.687294 V 47.854 h -0.56843 v -0.547769 q -0.0672,0.0052 -0.13436,0.01034 -0.062,0 -0.13436,0 h -0.14469 V 47.854 h -0.57361 v -0.630451 q -0.66662,-0.186034 -1.10071,-0.692462 -0.43408,-0.511595 -0.43408,-1.286739 h 0.97669 q 0,0.325561 0.14469,0.620115 0.14469,0.294555 0.41341,0.48059 v -2.320265 q -0.67179,-0.211872 -1.11104,-0.599444 -0.43408,-0.387573 -0.43408,-1.095537 0,-0.661457 0.42891,-1.080034 0.43408,-0.418578 1.11621,-0.568439 v -0.625283 h 0.57361 v 0.552936 q 0.10335,0 0.2067,0 0.10852,0 0.20671,0.01033 v -0.563271 h 0.56843 v 0.645953 q 0.60462,0.160197 1.01286,0.568439 0.40824,0.403075 0.48059,1.049028 h -0.86816 q -0.0982,-0.558103 -0.62529,-0.842323 v 2.185906 q 0.74931,0.253214 1.14722,0.713133 0.39791,0.459919 0.39791,1.11104 z m -2.11356,1.069698 v -2.258253 l -0.41341,-0.124023 v 2.382276 q 0.0723,0.0155 0.2067,0.01034 0.13436,-0.0052 0.20671,-0.01034 z m 0,-3.059235 q 0,-0.465086 -0.005,-0.904334 0,-0.439249 -0.0103,-0.780312 -0.005,-0.346231 -0.0207,-0.516763 -0.005,0 -0.005,0 0,0 -0.005,0 -0.093,-0.01033 -0.18604,-0.0155 -0.0879,-0.0052 -0.18086,-0.0052 v 2.082553 q 0.093,0.03617 0.19637,0.07235 0.10335,0.03101 0.21704,0.06718 z m -0.98702,-0.372069 v -1.715652 q -0.27905,0.134358 -0.40824,0.372069 -0.12919,0.232543 -0.12919,0.516763 0,0.263549 0.10852,0.459919 0.11368,0.191202 0.42891,0.366901 z m 2.05155,2.294426 q 0,-0.242878 -0.11369,-0.454751 -0.10852,-0.211872 -0.38241,-0.387572 v 1.777664 q 0.26355,-0.165364 0.37724,-0.418578 0.11886,-0.253214 0.11886,-0.516763 z"
           id="path34521-96-7" />
      </g>
    </g>
    <g
       id="g36619-3-6"
       transform="translate(27.10395,-233.81829)">
      <rect
         style="fill:#80e5ff;fill-opacity:0.999953;stroke:none;stroke-width:0.0560398;stroke-linecap:round;stroke-linejoin:round"
         id="rect29577-6-8-4-1-0"
         width="12.7"
         height="12.7"
         x="49.530003"
         y="77.470001" />
      <g
         aria-label="$"
         id="text33991-48-1"
         style="font-weight:bold;font-size:10.5833px;line-height:1.25;font-family:'Abyssinica SIL';-inkscape-font-specification:'Abyssinica SIL Bold';stroke-width:0.264583"
         transform="matrix(1.3464601,0,0,1.17913,-83.862335,31.991314)">
        <path
           d="m 106.10783,45.487227 q 0,0.552936 -0.41858,1.038693 -0.41341,0.485756 -1.12655,0.687294 V 47.854 h -0.56843 v -0.547769 q -0.0672,0.0052 -0.13436,0.01034 -0.062,0 -0.13436,0 h -0.14469 V 47.854 h -0.57361 v -0.630451 q -0.66662,-0.186034 -1.10071,-0.692462 -0.43408,-0.511595 -0.43408,-1.286739 h 0.97669 q 0,0.325561 0.14469,0.620115 0.14469,0.294555 0.41341,0.48059 v -2.320265 q -0.67179,-0.211872 -1.11104,-0.599444 -0.43408,-0.387573 -0.43408,-1.095537 0,-0.661457 0.42891,-1.080034 0.43408,-0.418578 1.11621,-0.568439 v -0.625283 h 0.57361 v 0.552936 q 0.10335,0 0.2067,0 0.10852,0 0.20671,0.01033 v -0.563271 h 0.56843 v 0.645953 q 0.60462,0.160197 1.01286,0.568439 0.40824,0.403075 0.48059,1.049028 h -0.86816 q -0.0982,-0.558103 -0.62529,-0.842323 v 2.185906 q 0.74931,0.253214 1.14722,0.713133 0.39791,0.459919 0.39791,1.11104 z m -2.11356,1.069698 v -2.258253 l -0.41341,-0.124023 v 2.382276 q 0.0723,0.0155 0.2067,0.01034 0.13436,-0.0052 0.20671,-0.01034 z m 0,-3.059235 q 0,-0.465086 -0.005,-0.904334 0,-0.439249 -0.0103,-0.780312 -0.005,-0.346231 -0.0207,-0.516763 -0.005,0 -0.005,0 0,0 -0.005,0 -0.093,-0.01033 -0.18604,-0.0155 -0.0879,-0.0052 -0.18086,-0.0052 v 2.082553 q 0.093,0.03617 0.19637,0.07235 0.10335,0.03101 0.21704,0.06718 z m -0.98702,-0.372069 v -1.715652 q -0.27905,0.134358 -0.40824,0.372069 -0.12919,0.232543 -0.12919,0.516763 0,0.263549 0.10852,0.459919 0.11368,0.191202 0.42891,0.366901 z m 2.05155,2.294426 q 0,-0.242878 -0.11369,-0.454751 -0.10852,-0.211872 -0.38241,-0.387572 v 1.777664 q 0.26355,-0.165364 0.37724,-0.418578 0.11886,-0.253214 0.11886,-0.516763 z"
           id="path34521-96-0" />
      </g>
    </g>
    <g
       id="g2309-1-2"
       transform="translate(82.98395,-233.81829)">
      <rect
         style="fill:#80e5ff;fill-opacity:0.999953;stroke:none;stroke-width:0.0840596;stroke-linecap:round;stroke-linejoin:round"
         id="rect29577-6-4-5-5"
         width="19.049999"
         height="19.049999"
         x="18.414999"
         y="74.294998" />
      <path
         d="m 31.067629,85.626668 q 0,0.651983 -0.563601,1.224754 -0.55664,0.57277 -1.516855,0.810409 v 0.75557 H 28.221805 V 87.77151 q -0.09048,0.0061 -0.18091,0.01219 -0.08348,0 -0.180911,0 h -0.194819 v 0.633699 H 26.892822 V 87.674017 Q 25.995245,87.454659 25.41076,86.857515 24.826289,86.254278 24.826289,85.340282 h 1.315074 q 0,0.383879 0.194819,0.731196 0.194819,0.347319 0.55664,0.566678 V 83.902262 Q 25.988284,83.652438 25.396851,83.19544 24.81238,82.738441 24.81238,81.903659 q 0,-0.779943 0.57751,-1.2735 0.584471,-0.493558 1.502932,-0.670264 v -0.73729 h 0.772343 v 0.651984 q 0.139157,0 0.278313,0 0.146118,0 0.278327,0.01218 V 79.2226 h 0.765368 v 0.761662 q 0.814097,0.188893 1.363776,0.670264 0.549679,0.475277 0.647095,1.23694 H 29.829102 Q 29.696879,81.23339 28.987173,80.898258 v 2.577467 q 1.008917,0.298572 1.544686,0.840876 0.53577,0.542305 0.53577,1.310061 z m -2.845824,1.261313 v -2.662774 l -0.55664,-0.146239 v 2.809013 q 0.09735,0.01828 0.278313,0.01219 0.180911,-0.0061 0.278327,-0.01219 z m 0,-3.607236 q 0,-0.548397 -0.0067,-1.066327 0,-0.517932 -0.01387,-0.920089 -0.0067,-0.408252 -0.02787,-0.609331 -0.0067,0 -0.0067,0 0,0 -0.0067,0 -0.125221,-0.01218 -0.250495,-0.01828 -0.118354,-0.0061 -0.243521,-0.0061 v 2.455601 q 0.125221,0.04265 0.264404,0.08531 0.139157,0.03656 0.292236,0.07921 z m -1.328983,-0.438718 v -2.022976 q -0.37573,0.158425 -0.549679,0.438717 -0.173949,0.274199 -0.173949,0.609331 0,0.310759 0.146118,0.542305 0.153066,0.225452 0.57751,0.432623 z m 2.76233,2.705427 q 0,-0.286385 -0.153079,-0.536211 -0.146118,-0.249824 -0.5149,-0.456997 v 2.096097 q 0.35486,-0.194986 0.507939,-0.493558 0.16004,-0.298572 0.16004,-0.609331 z"
         id="path34521-0-09-1"
         style="font-weight:bold;font-size:10.5833px;line-height:1.25;font-family:'Abyssinica SIL';-inkscape-font-specification:'Abyssinica SIL Bold';stroke-width:0.33338" />
      <circle
         style="fill:#000000;fill-opacity:0.999953;stroke-width:2;stroke-linecap:round;stroke-linejoin:round"
         id="path915-20-0-5-6-0-9"
         cx="31.267052"
         cy="90.573654"
         r="1.8341112" />
      <circle
         style="fill:#000000;fill-opacity:0.999953;stroke-width:2;stroke-linecap:round;stroke-linejoin:round"
         id="path915-3-6-7-6-4-5-4-7"
         cx="24.612947"
         cy="90.573654"
         r="1.8341112" />
    </g>
    <g
       id="g2309-1-3-2"
       transform="translate(-0.83605,-177.93829)">
      <rect
         style="fill:#80e5ff;fill-opacity:0.999953;stroke:none;stroke-width:0.0840596;stroke-linecap:round;stroke-linejoin:round"
         id="rect29577-6-4-5-8-1"
         width="19.049999"
         height="19.049999"
         x="18.414999"
         y="74.294998" />
      <path
         d="m 31.067629,85.626668 q 0,0.651983 -0.563601,1.224754 -0.55664,0.57277 -1.516855,0.810409 v 0.75557 H 28.221805 V 87.77151 q -0.09048,0.0061 -0.18091,0.01219 -0.08348,0 -0.180911,0 h -0.194819 v 0.633699 H 26.892822 V 87.674017 Q 25.995245,87.454659 25.41076,86.857515 24.826289,86.254278 24.826289,85.340282 h 1.315074 q 0,0.383879 0.194819,0.731196 0.194819,0.347319 0.55664,0.566678 V 83.902262 Q 25.988284,83.652438 25.396851,83.19544 24.81238,82.738441 24.81238,81.903659 q 0,-0.779943 0.57751,-1.2735 0.584471,-0.493558 1.502932,-0.670264 v -0.73729 h 0.772343 v 0.651984 q 0.139157,0 0.278313,0 0.146118,0 0.278327,0.01218 V 79.2226 h 0.765368 v 0.761662 q 0.814097,0.188893 1.363776,0.670264 0.549679,0.475277 0.647095,1.23694 H 29.829102 Q 29.696879,81.23339 28.987173,80.898258 v 2.577467 q 1.008917,0.298572 1.544686,0.840876 0.53577,0.542305 0.53577,1.310061 z m -2.845824,1.261313 v -2.662774 l -0.55664,-0.146239 v 2.809013 q 0.09735,0.01828 0.278313,0.01219 0.180911,-0.0061 0.278327,-0.01219 z m 0,-3.607236 q 0,-0.548397 -0.0067,-1.066327 0,-0.517932 -0.01387,-0.920089 -0.0067,-0.408252 -0.02787,-0.609331 -0.0067,0 -0.0067,0 0,0 -0.0067,0 -0.125221,-0.01218 -0.250495,-0.01828 -0.118354,-0.0061 -0.243521,-0.0061 v 2.455601 q 0.125221,0.04265 0.264404,0.08531 0.139157,0.03656 0.292236,0.07921 z m -1.328983,-0.438718 v -2.022976 q -0.37573,0.158425 -0.549679,0.438717 -0.173949,0.274199 -0.173949,0.609331 0,0.310759 0.146118,0.542305 0.153066,0.225452 0.57751,0.432623 z m 2.76233,2.705427 q 0,-0.286385 -0.153079,-0.536211 -0.146118,-0.249824 -0.5149,-0.456997 v 2.096097 q 0.35486,-0.194986 0.507939,-0.493558 0.16004,-0.298572 0.16004,-0.609331 z"
         id="path34521-0-09-7-3"
         style="font-weight:bold;font-size:10.5833px;line-height:1.25;font-family:'Abyssinica SIL';-inkscape-font-specification:'Abyssinica SIL Bold';stroke-width:0.33338" />
      <circle
         style="fill:#000000;fill-opacity:0.999953;stroke-width:2;stroke-linecap:round;stroke-linejoin:round"
         id="path915-20-0-5-6-0-5-4"
         cx="31.267052"
         cy="90.573654"
         r="1.8341112" />
      <circle
         style="fill:#000000;fill-opacity:0.999953;stroke-width:2;stroke-linecap:round;stroke-linejoin:round"
         id="path915-3-6-7-6-4-5-4-2-9"
         cx="24.612947"
         cy="90.573654"
         r="1.8341112" />
    </g>
    <g
       id="g2309-1-3-4"
       transform="translate(55.04395,-205.87829)">
      <rect
         style="fill:#80e5ff;fill-opacity:0.999953;stroke:none;stroke-width:0.0840596;stroke-linecap:round;stroke-linejoin:round"
         id="rect29577-6-4-5-8-19"
         width="19.049999"
         height="19.049999"
         x="18.414999"
         y="74.294998" />
      <path
         d="m 31.067629,85.626668 q 0,0.651983 -0.563601,1.224754 -0.55664,0.57277 -1.516855,0.810409 v 0.75557 H 28.221805 V 87.77151 q -0.09048,0.0061 -0.18091,0.01219 -0.08348,0 -0.180911,0 h -0.194819 v 0.633699 H 26.892822 V 87.674017 Q 25.995245,87.454659 25.41076,86.857515 24.826289,86.254278 24.826289,85.340282 h 1.315074 q 0,0.383879 0.194819,0.731196 0.194819,0.347319 0.55664,0.566678 V 83.902262 Q 25.988284,83.652438 25.396851,83.19544 24.81238,82.738441 24.81238,81.903659 q 0,-0.779943 0.57751,-1.2735 0.584471,-0.493558 1.502932,-0.670264 v -0.73729 h 0.772343 v 0.651984 q 0.139157,0 0.278313,0 0.146118,0 0.278327,0.01218 V 79.2226 h 0.765368 v 0.761662 q 0.814097,0.188893 1.363776,0.670264 0.549679,0.475277 0.647095,1.23694 H 29.829102 Q 29.696879,81.23339 28.987173,80.898258 v 2.577467 q 1.008917,0.298572 1.544686,0.840876 0.53577,0.542305 0.53577,1.310061 z m -2.845824,1.261313 v -2.662774 l -0.55664,-0.146239 v 2.809013 q 0.09735,0.01828 0.278313,0.01219 0.180911,-0.0061 0.278327,-0.01219 z m 0,-3.607236 q 0,-0.548397 -0.0067,-1.066327 0,-0.517932 -0.01387,-0.920089 -0.0067,-0.408252 -0.02787,-0.609331 -0.0067,0 -0.0067,0 0,0 -0.0067,0 -0.125221,-0.01218 -0.250495,-0.01828 -0.118354,-0.0061 -0.243521,-0.0061 v 2.455601 q 0.125221,0.04265 0.264404,0.08531 0.139157,0.03656 0.292236,0.07921 z m -1.328983,-0.438718 v -2.022976 q -0.37573,0.158425 -0.549679,0.438717 -0.173949,0.274199 -0.173949,0.609331 0,0.310759 0.146118,0.542305 0.153066,0.225452 0.57751,0.432623 z m 2.76233,2.705427 q 0,-0.286385 -0.153079,-0.536211 -0.146118,-0.249824 -0.5149,-0.456997 v 2.096097 q 0.35486,-0.194986 0.507939,-0.493558 0.16004,-0.298572 0.16004,-0.609331 z"
         id="path34521-0-09-7-5"
         style="font-weight:bold;font-size:10.5833px;line-height:1.25;font-family:'Abyssinica SIL';-inkscape-font-specification:'Abyssinica SIL Bold';stroke-width:0.33338" />
      <circle
         style="fill:#000000;fill-opacity:0.999953;stroke-width:2;stroke-linecap:round;stroke-linejoin:round"
         id="path915-20-0-5-6-0-5-7"
         cx="31.267052"
         cy="90.573654"
         r="1.8341112" />
      <circle
         style="fill:#000000;fill-opacity:0.999953;stroke-width:2;stroke-linecap:round;stroke-linejoin:round"
         id="path915-3-6-7-6-4-5-4-2-4"
         cx="24.612947"
         cy="90.573654"
         r="1.8341112" />
    </g>
    <g
       id="g2273-7-5-1"
       transform="translate(55.04395,-205.87829)">
      <rect
         style="fill:#80e5ff;fill-opacity:0.999953;stroke:none;stroke-width:0.112079;stroke-linecap:round;stroke-linejoin:round"
         id="rect29577-8-7-6-2"
         width="25.4"
         height="25.4"
         x="-12.7"
         y="71.120003" />
      <path
         d="m 3.1276194,85.626668 q 0,0.651983 -0.5636013,1.224754 -0.55664,0.57277 -1.5168546,0.810409 v 0.75557 H 0.28179518 V 87.77151 q -0.0904821,0.0061 -0.18091038,0.01219 -0.08348052,0 -0.18091037,0 h -0.19481932 v 0.633699 H -1.0471879 V 87.674017 Q -1.9447651,87.454659 -2.52925,86.857515 -3.1137214,86.254278 -3.1137214,85.340282 h 1.3150742 q 0,0.383879 0.1948193,0.731196 0.1948193,0.347319 0.55664,0.566678 v -2.735894 q -0.9045384,-0.249824 -1.495971,-0.706822 -0.5844714,-0.456999 -0.5844714,-1.291781 0,-0.779943 0.5775102,-1.2735 0.5844714,-0.493558 1.5029322,-0.670264 v -0.73729 h 0.77234301 v 0.651984 q 0.13915666,0 0.27831331,0 0.14611785,0 0.27832676,0.01218 V 79.2226 H 1.0471635 v 0.761662 q 0.8140967,0.188893 1.3637756,0.670264 0.5496788,0.475277 0.6470952,1.23694 H 1.8890915 Q 1.7568692,81.23339 1.0471635,80.898258 v 2.577467 q 1.008916,0.298572 1.544686,0.840876 0.5357699,0.542305 0.5357699,1.310061 z m -2.84582422,1.261313 v -2.662774 l -0.55664007,-0.146239 v 2.809013 q 0.0973491,0.01828 0.27831331,0.01219 0.18091038,-0.0061 0.27832676,-0.01219 z m 0,-3.607236 q 0,-0.548397 -0.006732,-1.066327 0,-0.517932 -0.0138685,-0.920089 -0.006732,-0.408252 -0.0278717,-0.609331 -0.006732,0 -0.006732,0 0,0 -0.006732,0 -0.12522079,-0.01218 -0.25049544,-0.01828 -0.11835384,-0.0061 -0.24352077,-0.0061 v 2.455601 q 0.12522079,0.04265 0.26440437,0.08531 0.13915665,0.03656 0.2922357,0.07921 z M -1.0471879,82.842027 v -2.022976 q -0.3757297,0.158425 -0.5496788,0.438717 -0.1739492,0.274199 -0.1739492,0.609331 0,0.310759 0.1461178,0.542305 0.1530656,0.225452 0.5775102,0.432623 z m 2.7623303,2.705427 q 0,-0.286385 -0.1530791,-0.536211 -0.1461178,-0.249824 -0.5148998,-0.456997 v 2.096097 q 0.3548596,-0.194986 0.5079386,-0.493558 0.1600403,-0.298572 0.1600403,-0.609331 z"
         id="path34521-2-3-8-2"
         style="font-weight:bold;font-size:10.5833px;line-height:1.25;font-family:'Abyssinica SIL';-inkscape-font-specification:'Abyssinica SIL Bold';stroke-width:0.33338" />
      <circle
         style="fill:#000000;fill-opacity:0.999953;stroke-width:2;stroke-linecap:round;stroke-linejoin:round"
         id="path915-8-0-71-4-1"
         cx="1.6124917e-08"
         cy="91.218422"
         r="1.8341112" />
      <circle
         style="fill:#000000;fill-opacity:0.999953;stroke-width:2;stroke-linecap:round;stroke-linejoin:round"
         id="path915-3-9-6-2-8-6"
         cx="6.6541052"
         cy="91.218422"
         r="1.8341112" />
      <circle
         style="fill:#000000;fill-opacity:0.999953;stroke-width:2;stroke-linecap:round;stroke-linejoin:round"
         id="path915-3-6-73-3-2-8-2"
         cx="-6.6541047"
         cy="91.218422"
         r="1.8341112" />
    </g>
    <g
       id="g2273-7-5-0"
       transform="translate(82.98395,-177.93829)">
      <rect
         style="fill:#80e5ff;fill-opacity:0.999953;stroke:none;stroke-width:0.112079;stroke-linecap:round;stroke-linejoin:round"
         id="rect29577-8-7-6-22"
         width="25.4"
         height="25.4"
         x="-12.7"
         y="71.120003" />
      <path
         d="m 3.1276194,85.626668 q 0,0.651983 -0.5636013,1.224754 -0.55664,0.57277 -1.5168546,0.810409 v 0.75557 H 0.28179518 V 87.77151 q -0.0904821,0.0061 -0.18091038,0.01219 -0.08348052,0 -0.18091037,0 h -0.19481932 v 0.633699 H -1.0471879 V 87.674017 Q -1.9447651,87.454659 -2.52925,86.857515 -3.1137214,86.254278 -3.1137214,85.340282 h 1.3150742 q 0,0.383879 0.1948193,0.731196 0.1948193,0.347319 0.55664,0.566678 v -2.735894 q -0.9045384,-0.249824 -1.495971,-0.706822 -0.5844714,-0.456999 -0.5844714,-1.291781 0,-0.779943 0.5775102,-1.2735 0.5844714,-0.493558 1.5029322,-0.670264 v -0.73729 h 0.77234301 v 0.651984 q 0.13915666,0 0.27831331,0 0.14611785,0 0.27832676,0.01218 V 79.2226 H 1.0471635 v 0.761662 q 0.8140967,0.188893 1.3637756,0.670264 0.5496788,0.475277 0.6470952,1.23694 H 1.8890915 Q 1.7568692,81.23339 1.0471635,80.898258 v 2.577467 q 1.008916,0.298572 1.544686,0.840876 0.5357699,0.542305 0.5357699,1.310061 z m -2.84582422,1.261313 v -2.662774 l -0.55664007,-0.146239 v 2.809013 q 0.0973491,0.01828 0.27831331,0.01219 0.18091038,-0.0061 0.27832676,-0.01219 z m 0,-3.607236 q 0,-0.548397 -0.006732,-1.066327 0,-0.517932 -0.0138685,-0.920089 -0.006732,-0.408252 -0.0278717,-0.609331 -0.006732,0 -0.006732,0 0,0 -0.006732,0 -0.12522079,-0.01218 -0.25049544,-0.01828 -0.11835384,-0.0061 -0.24352077,-0.0061 v 2.455601 q 0.12522079,0.04265 0.26440437,0.08531 0.13915665,0.03656 0.2922357,0.07921 z M -1.0471879,82.842027 v -2.022976 q -0.3757297,0.158425 -0.5496788,0.438717 -0.1739492,0.274199 -0.1739492,0.609331 0,0.310759 0.1461178,0.542305 0.1530656,0.225452 0.5775102,0.432623 z m 2.7623303,2.705427 q 0,-0.286385 -0.1530791,-0.536211 -0.1461178,-0.249824 -0.5148998,-0.456997 v 2.096097 q 0.3548596,-0.194986 0.5079386,-0.493558 0.1600403,-0.298572 0.1600403,-0.609331 z"
         id="path34521-2-3-8-9"
         style="font-weight:bold;font-size:10.5833px;line-height:1.25;font-family:'Abyssinica SIL';-inkscape-font-specification:'Abyssinica SIL Bold';stroke-width:0.33338" />
      <circle
         style="fill:#000000;fill-opacity:0.999953;stroke-width:2;stroke-linecap:round;stroke-linejoin:round"
         id="path915-8-0-71-4-7"
         cx="1.6124917e-08"
         cy="91.218422"
         r="1.8341112" />
      <circle
         style="fill:#000000;fill-opacity:0.999953;stroke-width:2;stroke-linecap:round;stroke-linejoin:round"
         id="path915-3-9-6-2-8-4"
         cx="6.6541052"
         cy="91.218422"
         r="1.8341112" />
      <circle
         style="fill:#000000;fill-opacity:0.999953;stroke-width:2;stroke-linecap:round;stroke-linejoin:round"
         id="path915-3-6-73-3-2-8-3"
         cx="-6.6541047"
         cy="91.218422"
         r="1.8341112" />
    </g>
    <g
       id="g2273-7-5-5"
       transform="translate(110.92395,-205.87829)">
      <rect
         style="fill:#80e5ff;fill-opacity:0.999953;stroke:none;stroke-width:0.112079;stroke-linecap:round;stroke-linejoin:round"
         id="rect29577-8-7-6-6"
         width="25.4"
         height="25.4"
         x="-12.7"
         y="71.120003" />
      <path
         d="m 3.1276194,85.626668 q 0,0.651983 -0.5636013,1.224754 -0.55664,0.57277 -1.5168546,0.810409 v 0.75557 H 0.28179518 V 87.77151 q -0.0904821,0.0061 -0.18091038,0.01219 -0.08348052,0 -0.18091037,0 h -0.19481932 v 0.633699 H -1.0471879 V 87.674017 Q -1.9447651,87.454659 -2.52925,86.857515 -3.1137214,86.254278 -3.1137214,85.340282 h 1.3150742 q 0,0.383879 0.1948193,0.731196 0.1948193,0.347319 0.55664,0.566678 v -2.735894 q -0.9045384,-0.249824 -1.495971,-0.706822 -0.5844714,-0.456999 -0.5844714,-1.291781 0,-0.779943 0.5775102,-1.2735 0.5844714,-0.493558 1.5029322,-0.670264 v -0.73729 h 0.77234301 v 0.651984 q 0.13915666,0 0.27831331,0 0.14611785,0 0.27832676,0.01218 V 79.2226 H 1.0471635 v 0.761662 q 0.8140967,0.188893 1.3637756,0.670264 0.5496788,0.475277 0.6470952,1.23694 H 1.8890915 Q 1.7568692,81.23339 1.0471635,80.898258 v 2.577467 q 1.008916,0.298572 1.544686,0.840876 0.5357699,0.542305 0.5357699,1.310061 z m -2.84582422,1.261313 v -2.662774 l -0.55664007,-0.146239 v 2.809013 q 0.0973491,0.01828 0.27831331,0.01219 0.18091038,-0.0061 0.27832676,-0.01219 z m 0,-3.607236 q 0,-0.548397 -0.006732,-1.066327 0,-0.517932 -0.0138685,-0.920089 -0.006732,-0.408252 -0.0278717,-0.609331 -0.006732,0 -0.006732,0 0,0 -0.006732,0 -0.12522079,-0.01218 -0.25049544,-0.01828 -0.11835384,-0.0061 -0.24352077,-0.0061 v 2.455601 q 0.12522079,0.04265 0.26440437,0.08531 0.13915665,0.03656 0.2922357,0.07921 z M -1.0471879,82.842027 v -2.022976 q -0.3757297,0.158425 -0.5496788,0.438717 -0.1739492,0.274199 -0.1739492,0.609331 0,0.310759 0.1461178,0.542305 0.1530656,0.225452 0.5775102,0.432623 z m 2.7623303,2.705427 q 0,-0.286385 -0.1530791,-0.536211 -0.1461178,-0.249824 -0.5148998,-0.456997 v 2.096097 q 0.3548596,-0.194986 0.5079386,-0.493558 0.1600403,-0.298572 0.1600403,-0.609331 z"
         id="path34521-2-3-8-1"
         style="font-weight:bold;font-size:10.5833px;line-height:1.25;font-family:'Abyssinica SIL';-inkscape-font-specification:'Abyssinica SIL Bold';stroke-width:0.33338" />
      <circle
         style="fill:#000000;fill-opacity:0.999953;stroke-width:2;stroke-linecap:round;stroke-linejoin:round"
         id="path915-8-0-71-4-4"
         cx="1.6124917e-08"
         cy="91.218422"
         r="1.8341112" />
      <circle
         style="fill:#000000;fill-opacity:0.999953;stroke-width:2;stroke-linecap:round;stroke-linejoin:round"
         id="path915-3-9-6-2-8-0"
         cx="6.6541052"
         cy="91.218422"
         r="1.8341112" />
      <circle
         style="fill:#000000;fill-opacity:0.999953;stroke-width:2;stroke-linecap:round;stroke-linejoin:round"
         id="path915-3-6-73-3-2-8-31"
         cx="-6.6541047"
         cy="91.218422"
         r="1.8341112" />
    </g>
    <g
       id="g2320-3-7"
       transform="translate(27.10395,-261.75829)">
      <rect
         style="fill:#c6e9af;fill-opacity:0.999953;stroke:none;stroke-width:0.0840596;stroke-linecap:round;stroke-linejoin:round"
         id="rect29577-6-9-4-4"
         width="19.049999"
         height="19.049999"
         x="18.414999"
         y="102.235" />
      <path
         sodipodi:type="star"
         style="fill:#000000;fill-opacity:0.999953;stroke:none;stroke-width:0.755906;stroke-linecap:round;stroke-linejoin:round"
         id="path32980-9-6-9"
         inkscape:flatsided="true"
         sodipodi:sides="3"
         sodipodi:cx="432.08679"
         sodipodi:cy="65.102242"
         sodipodi:r1="108.81142"
         sodipodi:r2="54.405712"
         sodipodi:arg1="0.52359878"
         sodipodi:arg2="1.5707963"
         inkscape:rounded="0"
         inkscape:randomized="0"
         transform="matrix(0.02179747,0,0,0.04667373,18.030889,109.53867)"
         inkscape:transform-center-y="-7.1974224"
         d="m 526.32024,119.50795 -188.4669,0 94.23345,-163.217125 z" />
      <path
         sodipodi:type="star"
         style="fill:#000000;fill-opacity:0.999953;stroke:none;stroke-width:0.755906;stroke-linecap:round;stroke-linejoin:round"
         id="path32980-3-3-60-2"
         inkscape:flatsided="true"
         sodipodi:sides="3"
         sodipodi:cx="432.08679"
         sodipodi:cy="65.102242"
         sodipodi:r1="108.81142"
         sodipodi:r2="54.405712"
         sodipodi:arg1="0.52359878"
         sodipodi:arg2="1.5707963"
         inkscape:rounded="0"
         inkscape:randomized="0"
         transform="matrix(0.01369907,0,0,0.02933307,24.975287,110.70462)"
         inkscape:transform-center-y="-4.5233695"
         inkscape:transform-center-x="4.9552875e-06"
         d="m 526.32024,119.50795 -188.4669,0 94.23345,-163.217125 z" />
      <path
         sodipodi:type="star"
         style="fill:#000000;fill-opacity:0.999953;stroke:none;stroke-width:0.755906;stroke-linecap:round;stroke-linejoin:round"
         id="path32980-2-7-25-4"
         inkscape:flatsided="true"
         sodipodi:sides="3"
         sodipodi:cx="432.08679"
         sodipodi:cy="65.102242"
         sodipodi:r1="108.81142"
         sodipodi:r2="54.405712"
         sodipodi:arg1="0.52359878"
         sodipodi:arg2="1.5707963"
         inkscape:rounded="0"
         inkscape:randomized="0"
         transform="matrix(0.0091418,0,0,0.01957483,20.606025,110.68952)"
         inkscape:transform-center-y="-3.0185784"
         inkscape:transform-center-x="-1.0092874e-06"
         d="m 526.32024,119.50795 -188.4669,0 94.23345,-163.217125 z" />
      <rect
         style="fill:#000000;fill-opacity:0.999953;stroke:none;stroke-width:0.0352809;stroke-linecap:round;stroke-linejoin:round"
         id="rect33119-1-8-4"
         width="0.65517044"
         height="1.5596114"
         x="27.1217"
         y="114.46178" />
      <rect
         style="fill:#000000;fill-opacity:0.999953;stroke:none;stroke-width:0.0352809;stroke-linecap:round;stroke-linejoin:round"
         id="rect33121-2-95-5"
         width="0.42321467"
         height="1.0674511"
         x="30.682865"
         y="113.74292" />
      <rect
         style="fill:#000000;fill-opacity:0.999953;stroke:none;stroke-width:0.0352809;stroke-linecap:round;stroke-linejoin:round"
         id="rect33123-3-06-9"
         width="0.42656532"
         height="0.89759755"
         x="24.342793"
         y="112.67718" />
      <circle
         style="fill:#000000;fill-opacity:0.999953;stroke-width:2;stroke-linecap:round;stroke-linejoin:round"
         id="path915-20-0-5-6-15-9-0-1"
         cx="31.267052"
         cy="118.51365"
         r="1.8341112" />
      <circle
         style="fill:#000000;fill-opacity:0.999953;stroke-width:2;stroke-linecap:round;stroke-linejoin:round"
         id="path915-3-6-7-6-4-5-9-0-83-2"
         cx="24.612947"
         cy="118.51365"
         r="1.8341112" />
    </g>
    <g
       id="g2303-81-1"
       transform="translate(82.98395,-149.99829)">
      <rect
         style="fill:#ff8080;fill-opacity:0.999953;stroke:none;stroke-width:0.0840596;stroke-linecap:round;stroke-linejoin:round"
         id="rect29577-6-33-31"
         width="19.049999"
         height="19.049999"
         x="18.414999"
         y="46.355" />
      <path
         id="rect29926-0-3-2"
         style="fill:#000000;fill-opacity:0.999953;stroke:none;stroke-width:0.0480896;stroke-linecap:round;stroke-linejoin:round"
         d="m 27.939933,52.072005 -5.340988,3.054066 h 1.308688 v 4.561923 h 3.042853 v -3.124433 h 1.979026 v 3.124433 h 3.042723 v -4.561922 h 1.30882 z" />
      <circle
         style="fill:#000000;fill-opacity:0.999953;stroke-width:2;stroke-linecap:round;stroke-linejoin:round"
         id="path915-20-0-5-6-15-1-79-06"
         cx="31.267052"
         cy="62.633652"
         r="1.8341112" />
      <circle
         style="fill:#000000;fill-opacity:0.999953;stroke-width:2;stroke-linecap:round;stroke-linejoin:round"
         id="path915-3-6-7-6-4-5-9-7-86-8"
         cx="24.612947"
         cy="62.633652"
         r="1.8341112" />
    </g>
    <text
       xml:space="preserve"
       style="font-style:normal;font-weight:normal;font-size:18.0427px;line-height:1.25;font-family:sans-serif;fill:#000000;fill-opacity:1;stroke:none;stroke-width:0.45107"
       x="131.17706"
       y="-131.84547"
       id="text28275-0-8-7-2-0"><tspan
         sodipodi:role="line"
         id="tspan28273-5-5-3-7-6"
         style="stroke-width:0.45107"
         x="131.17706"
         y="-131.84547">+3</tspan></text>
    <text
       xml:space="preserve"
       style="font-style:normal;font-weight:normal;font-size:18.0427px;line-height:1.25;font-family:sans-serif;fill:#000000;fill-opacity:1;stroke:none;stroke-width:0.45107"
       x="55.33794"
       y="-57.797802"
       id="text28275-0-8-7-2-4"><tspan
         sodipodi:role="line"
         id="tspan28273-5-5-3-7-0"
         style="stroke-width:0.45107"
         x="55.33794"
         y="-57.797802">+3</tspan></text>
    <text
       xml:space="preserve"
       style="font-style:normal;font-weight:normal;font-size:18.0427px;line-height:1.25;font-family:sans-serif;fill:#000000;fill-opacity:1;stroke:none;stroke-width:0.45107"
       x="-23.486975"
       y="-105.5705"
       id="text28275-0-8-7-2-9"><tspan
         sodipodi:role="line"
         id="tspan28273-5-5-3-7-4"
         style="stroke-width:0.45107"
         x="-23.486975"
         y="-105.5705">+3</tspan></text>
    <rect
       style="fill:none;fill-opacity:0.999953;stroke:#000000;stroke-width:1.27;stroke-linecap:round;stroke-linejoin:round;stroke-miterlimit:4;stroke-dasharray:3.81, 3.81;stroke-dashoffset:0"
       id="rect48829-8"
       width="59.493767"
       height="57.520382"
       x="10.281367"
       y="-136.99974" />
    <rect
       style="fill:none;fill-opacity:0.999953;stroke:#000000;stroke-width:1.27;stroke-linecap:round;stroke-linejoin:round;stroke-miterlimit:4;stroke-dasharray:3.81, 3.81;stroke-dashoffset:0"
       id="rect48829-9"
       width="59.493767"
       height="57.520382"
       x="40.317402"
       y="-134.32973" />
    <rect
       style="fill:none;fill-opacity:0.999953;stroke:#000000;stroke-width:1.27;stroke-linecap:round;stroke-linejoin:round;stroke-miterlimit:4;stroke-dasharray:3.81, 3.81;stroke-dashoffset:0"
       id="rect48829-6"
       width="59.493767"
       height="57.520382"
       x="66.592369"
       y="-165.38197" />
  </g>
</svg>
